<svg width="144" height="24" viewBox="0 0 144 24" fill="none" xmlns="http://www.w3.org/2000/svg">
<g id="cr demo 1">
<g id="Page-1">
<g id="cr-demo">
<path id="Shape" d="M93.555 17.6972C93.7553 18.2674 93.4487 18.8897 92.8697 19.0872C92.2908 19.2846 91.659 18.9821 91.4587 18.4119C91.2587 17.8417 91.5653 17.2194 92.1443 17.022C92.7229 16.8246 93.3547 17.127 93.555 17.6972Z" fill="#006FBA"/>
<path id="Shape_2" d="M38.9975 16.7941C38.0672 18.3215 36.0639 19.379 34.0126 19.379C30.5542 19.379 28.0261 16.8881 28.0261 13.6216C28.0261 10.3557 30.5066 7.86496 33.8697 7.86496C35.8253 7.86496 37.5903 8.82832 38.6396 10.2614L36.9702 11.6478C36.3501 10.8021 35.3005 9.97972 33.8697 9.97972C31.8424 9.97972 30.292 11.5305 30.292 13.6216C30.292 15.7837 31.8661 17.2642 34.0126 17.2642C35.4914 17.2642 36.5407 16.4884 37.2565 15.5484L38.9975 16.7941Z" fill="black"/>
<path id="Shape_3" d="M47.7988 10.0737C47.5366 10.0033 47.274 9.97968 46.9162 9.97968C45.7476 9.97968 44.5074 10.7787 43.8872 11.8361V19.1439H41.6214V8.09988H43.8156V9.36865C44.3644 8.61659 45.533 7.86488 47.1787 7.86488C47.4173 7.86488 47.7988 7.88822 48.0611 7.93523L47.7988 10.0737Z" fill="black"/>
<path id="Shape_4" d="M58.4364 11.554C57.7447 10.661 56.6001 9.97989 55.2406 9.97989C53.07 9.97989 51.6389 11.695 51.6389 13.6218C51.6389 15.5959 53.1893 17.264 55.3599 17.264C56.5045 17.264 57.6734 16.7003 58.4364 15.6896V11.554ZM58.5081 18.1334C57.6017 18.9321 56.3852 19.3791 55.0496 19.3791C54.048 19.3791 52.9987 19.0968 52.2353 18.6504C50.5419 17.6634 49.3734 15.8306 49.3734 13.6218C49.3734 11.413 50.5656 9.55652 52.2593 8.56981C53.0224 8.12346 53.9527 7.86476 55.002 7.86476C56.2662 7.86476 57.4824 8.24079 58.5081 9.11018V8.0998H60.7026V19.1438H58.5081V18.1334Z" fill="black"/>
<path id="Shape_5" d="M66.9516 9.15707C67.548 8.5934 68.693 7.86469 70.3147 7.86469C71.9605 7.86469 73.4392 8.6167 74.3932 9.81512C75.109 10.7082 75.4905 11.8362 75.4905 13.7394V19.144H73.2247V13.6217C73.2247 12.2119 72.9621 11.5542 72.5569 11.0605C72.0321 10.4028 71.1734 9.97981 70.2431 9.97981C68.7643 9.97981 67.691 10.7552 67.0232 11.5542V19.144H64.7574V8.10001H66.9516V9.15707Z" fill="black"/>
<path id="Shape_6" d="M80.7374 12.2121H86.8432C86.5094 10.8021 85.2215 9.815 83.8856 9.815C82.4308 9.815 81.119 10.7787 80.7374 12.2121ZM80.5465 14.0919C80.6658 15.9484 82.2162 17.4285 84.1719 17.4285C85.8416 17.4285 86.7479 16.6294 87.3917 15.9244L88.8705 17.3111C88.0358 18.3685 86.4377 19.3789 84.1482 19.3789C80.8804 19.3789 78.3523 16.9351 78.3523 13.6219C78.3523 10.3083 80.6421 7.86488 83.8143 7.86488C86.9385 7.86488 89.2044 10.3557 89.2044 13.6219C89.2044 13.7159 89.2044 13.8802 89.1807 14.0919H80.5465Z" fill="black"/>
<path id="Shape_7" d="M8.00116 0.0419312C7.71752 0.809856 7.52011 1.77034 7.56063 2.5292C7.59596 3.25982 7.84427 4.00445 8.19371 4.6456C8.51267 5.22941 8.94834 5.82652 9.46505 6.256C9.72826 6.47839 9.96619 6.50594 10.3108 6.55295C10.797 6.62005 11.2884 6.68099 11.7695 6.78763C12.1646 6.87579 12.5293 7.01357 12.9141 7.14451C12.7977 7.10596 13.1167 7.23041 13.1118 7.22915C13.4055 7.35197 13.6891 7.48714 13.9676 7.63822C14.54 7.95071 15.0869 8.31958 15.5682 8.76367C16.024 9.18639 16.5508 9.72481 16.7939 10.3125C16.7887 10.2966 16.7838 10.2804 16.7735 10.2642C17.2853 11.0276 17.0928 12.2059 16.9712 13.0562C16.8801 13.6941 16.7585 14.3285 16.6519 14.9635C16.885 14.8646 20.2633 16.3327 20.3495 16.251C20.4812 16.121 20.4811 15.7133 20.5016 15.5509C20.8105 13.0341 20.4458 10.5112 18.7083 7.66869C17.8526 6.26637 16.485 5.02456 14.1196 4.13345C11.9264 3.30751 8.8216 2.45466 8.00116 0.0419312Z" fill="#85BDE1"/>
<path id="Shape_8" d="M22.4767 9.00044C22.0868 7.19686 20.8206 5.63021 20.8102 3.78479C20.8054 2.73553 21.0637 1.09235 22.4868 0.034332C21.8689 -0.0194874 21.5548 0.3909 20.9065 0.517636C20.5318 0.59088 19.5289 0.444393 19.2605 1.96759C18.7084 5.1547 21.5548 8.23837 20.4913 11.1707C19.9798 12.5665 18.5716 13.668 18.0501 13.8907C18.5463 12.3597 18.5058 9.90454 17.665 8.60954C16.3126 6.53201 14.0992 5.7894 11.567 5.64156C9.06479 5.49536 7.66671 6.3304 5.45337 6.11194C3.83778 5.9518 1.78652 5.27883 0.0895663 3.57895C-0.244638 5.80527 1.2092 8.24973 3.25008 9.06787C2.99206 9.49871 2.02964 9.54603 1.40142 9.29774C3.85301 13.479 8.67483 10.6647 12.129 12.5733C17.0977 15.3195 14.3375 21.6263 10.4172 23.8802C15.2896 23.0017 19.9746 20.2798 22.0664 15.4771C22.5931 14.2742 23.0541 11.6644 22.4767 9.00044Z" fill="#006FBA"/>
<path id="DEMO" d="M100.326 8.15247C103.589 8.15247 105.769 10.4243 105.769 13.8244C105.769 17.1941 103.589 19.4354 100.326 19.4354H96.7273V8.15247H100.326ZM100.204 18.7798C103.055 18.7798 104.946 16.7976 104.946 13.8244C104.946 10.8207 103.055 8.8081 100.204 8.8081H97.5202V18.7798H100.204ZM109.032 18.7798H115.07V19.4354H108.239V8.15247H114.932V8.8081H109.032V13.3365H114.582V14.0074H109.032V18.7798ZM129.677 19.4354H128.899L128.365 9.57046L123.761 19.4354H123.227L118.622 9.57046L118.104 19.4354H117.311L117.967 8.03049H118.744L123.501 18.2309L128.259 8.03049H129.036L129.677 19.4354ZM137.376 19.5879C134.052 19.5879 131.842 17.2703 131.842 13.7939C131.842 10.3176 134.052 8 137.376 8C140.685 8 142.896 10.3176 142.896 13.7939C142.896 17.2703 140.685 19.5879 137.376 19.5879ZM137.376 18.9322C140.197 18.9322 142.073 16.8739 142.073 13.7939C142.073 10.714 140.197 8.65563 137.376 8.65563C134.556 8.65563 132.665 10.714 132.665 13.7939C132.665 16.8739 134.556 18.9322 137.376 18.9322Z" fill="black"/>
</g>
</g>
</g>
</svg>
